<svg width="256" height="256" viewBox="0 0 256 256" fill="none" xmlns="http://www.w3.org/2000/svg">
  <rect width="256" height="256" rx="28" fill="#F1F4F8"/>
  <path d="M34 147C42 109 72 80 112 74" stroke="#0A1E57" stroke-width="10" stroke-linecap="round"/>
  <path d="M38 162C46 130 72 105 103 98" stroke="#1EA5CF" stroke-width="9" stroke-linecap="round"/>
  <path d="M42 174C54 182 67 186 80 186C110 186 136 160 136 128C136 114 131 101 123 91" stroke="#0A1E57" stroke-width="11" stroke-linecap="round"/>
  <rect x="76" y="156" width="18" height="32" fill="#39B54A"/>
  <rect x="101" y="141" width="18" height="47" fill="#1EA5CF"/>
  <rect x="126" y="124" width="18" height="64" fill="#0E5B8E"/>
  <path d="M58 167C84 153 103 133 122 103" stroke="#39B54A" stroke-width="12" stroke-linecap="round"/>
  <path d="M121 103L138 112L133 92L121 103Z" fill="#39B54A"/>
</svg>
